<svg id="Layer_1" data-name="Layer 1" xmlns="http://www.w3.org/2000/svg" viewBox="0 0 234.57 234.58"><defs><style>.cls-1{fill:#dcd7e2;}</style></defs><path class="cls-1" d="M170.66,157.63l5-32.46H144.5V104.11c0-8.88,4.35-17.53,18.3-17.53H177V58.94a172.71,172.71,0,0,0-25.13-2.19c-25.65,0-42.41,15.54-42.41,43.68v24.74H80.9v32.46h28.51v78.45a113,113,0,0,0,35.09,0V157.63Z" transform="translate(-9.7 -7.89)"/><path class="cls-1" d="M127,242.46A117.29,117.29,0,1,1,244.27,125.18,117.41,117.41,0,0,1,127,242.46Zm0-224.55A107.27,107.27,0,1,0,234.25,125.18,107.39,107.39,0,0,0,127,17.91Z" transform="translate(-9.7 -7.89)"/></svg>