<svg id="Layer_1" data-name="Layer 1" xmlns="http://www.w3.org/2000/svg" viewBox="0 0 234.57 234.58"><defs><style>.cls-1{fill:#dcd7e2;}</style></defs><path class="cls-1" d="M122.56,243.19A117.29,117.29,0,1,1,239.84,125.9,117.42,117.42,0,0,1,122.56,243.19Zm0-224.56A107.27,107.27,0,1,0,229.82,125.9,107.39,107.39,0,0,0,122.56,18.63Z" transform="translate(-5.27 -8.61)"/><path class="cls-1" d="M157.41,83.42a7.72,7.72,0,1,0,7.72,7.72A7.72,7.72,0,0,0,157.41,83.42Z" transform="translate(-5.27 -8.61)"/><path class="cls-1" d="M123.1,93.32a32.42,32.42,0,1,0,32.42,32.42A32.45,32.45,0,0,0,123.1,93.32Zm0,53.19a20.77,20.77,0,1,1,20.76-20.77A20.8,20.8,0,0,1,123.1,146.51Z" transform="translate(-5.27 -8.61)"/><path class="cls-1" d="M148.84,191.56H96.28A39.58,39.58,0,0,1,56.73,152V99.46A39.59,39.59,0,0,1,96.28,59.92h52.56a39.59,39.59,0,0,1,39.54,39.54V152A39.58,39.58,0,0,1,148.84,191.56ZM96.28,72.3A27.19,27.19,0,0,0,69.12,99.46V152a27.19,27.19,0,0,0,27.16,27.16h52.56A27.18,27.18,0,0,0,176,152V99.46A27.19,27.19,0,0,0,148.84,72.3Z" transform="translate(-5.27 -8.61)"/></svg>