<svg id="Layer_1" data-name="Layer 1" xmlns="http://www.w3.org/2000/svg" viewBox="0 0 236.58 236.58"><defs><style>.cls-1{fill:#dcd7e2;stroke:#997eb8;stroke-miterlimit:10;}</style></defs><path class="cls-1" d="M127.54,241.26A117.79,117.79,0,1,1,245.33,123.47,117.92,117.92,0,0,1,127.54,241.26Zm0-225.56A107.77,107.77,0,1,0,235.31,123.47,107.89,107.89,0,0,0,127.54,15.7Z" transform="translate(-9.25 -5.18)"/><path class="cls-1" d="M127.54,132.67a7.48,7.48,0,0,1-3.7-1l-70-39.95a7.47,7.47,0,0,1-3.77-6.48V81.42A12.14,12.14,0,0,1,62.21,69.3H190a15,15,0,0,1,15,15v1a7.5,7.5,0,0,1-3.76,6.49l-70,40A7.48,7.48,0,0,1,127.54,132.67ZM59.37,84.2l68.17,38.91,68.17-38.92A5.69,5.69,0,0,0,190,78.58H62.21a2.84,2.84,0,0,0-2.84,2.84Z" transform="translate(-9.25 -5.18)"/><path class="cls-1" d="M192.87,177.64H62.21a12.14,12.14,0,0,1-12.13-12.13V108.57a4.64,4.64,0,0,1,7-4l70.51,40.24,70.51-40.26a4.64,4.64,0,0,1,6.94,4v57A12.14,12.14,0,0,1,192.87,177.64ZM59.37,116.56v48.95a2.84,2.84,0,0,0,2.84,2.84H192.87a2.84,2.84,0,0,0,2.84-2.84v-49L132,152.93a9.1,9.1,0,0,1-9,0Zm68.31,28.3Z" transform="translate(-9.25 -5.18)"/></svg>